<?xml version="1.0" encoding="UTF-8"?>
<svg version="1.1" xmlns="http://www.w3.org/2000/svg" width="377" height="325">
<path d="M0 0 C124.41 0 248.82 0 377 0 C377 107.25 377 214.5 377 325 C252.59 325 128.18 325 0 325 C0 217.75 0 110.5 0 0 Z " fill="#FEFEFE" transform="translate(0,0)"/>
<path d="M0 0 C-0.59189184 9.57143944 -1.49713565 19.06699141 -2.61413574 28.58868408 C-2.8814948 30.8678669 -3.14470219 33.14750169 -3.40722656 35.42724609 C-4.22007267 42.46157647 -5.05452981 49.49264145 -5.9296875 56.51953125 C-6.06906738 57.64576904 -6.20844727 58.77200684 -6.35205078 59.93237305 C-6.60826166 61.9878759 -6.86927559 64.0427887 -7.13623047 66.09692383 C-7.46515717 68.72902945 -7.7467406 71.35964157 -8 74 C-8.0918457 74.79801025 -8.18369141 75.59602051 -8.27832031 76.41821289 C-8.57576128 80.73886233 -8.2199787 83.27232066 -5.515625 86.73046875 C-4.44918183 87.90329356 -3.3598734 89.05568724 -2.25 90.1875 C-1.16890661 91.34489065 -0.09073322 92.50501632 0.984375 93.66796875 C1.49935547 94.21888184 2.01433594 94.76979492 2.54492188 95.33740234 C4.64573875 97.73783236 6.31049203 100.2976074 8 103 C11.95694266 99.13115254 15.7125041 95.14114042 19.3125 90.9375 C20.13717773 90.04901367 20.13717773 90.04901367 20.97851562 89.14257812 C26.43003231 82.67525088 25.39227574 76.0387655 24.76438904 67.97358704 C24.45522481 64.87653853 24.09834492 61.78888559 23.72265625 58.69921875 C23.59185165 57.5786055 23.46104706 56.45799225 23.32627869 55.30342102 C22.91147437 51.76398483 22.48705474 48.22577837 22.0625 44.6875 C21.78128677 42.29629612 21.50068264 39.90502052 21.22070312 37.51367188 C19.93349324 26.2386233 19.93349324 26.2386233 18.41796875 14.99316406 C17.95091721 11.64850759 17.90270422 8.43769107 17.9375 5.0625 C17.94652344 3.91910156 17.95554687 2.77570313 17.96484375 1.59765625 C17.97644531 0.74042969 17.98804688 -0.11679688 18 -1 C39.55980367 1.32861939 56.3765128 12.54536372 70.3125 28.75 C79.23242838 40.457406 84.73731001 55.25379988 84 70 C79.71 70 75.42 70 71 70 C70.87625 69.1028125 70.7525 68.205625 70.625 67.28125 C67.56451926 48.7653415 58.93490662 33.90056999 43.5625 22.875 C40.784585 21.03526057 37.98521322 19.47167765 35 18 C34.8494399 24.94413637 35.42332333 31.58228747 36.3125 38.46484375 C36.5122644 40.07487022 36.5122644 40.07487022 36.71606445 41.71742249 C37.28117771 46.27191011 37.85880773 50.82478172 38.43652344 55.37768555 C38.85853761 58.71863104 39.27322076 62.06043168 39.6875 65.40234375 C39.88436401 66.92310768 39.88436401 66.92310768 40.08520508 68.47459412 C42.22376313 85.76530572 42.22376313 85.76530572 38.98046875 90.546875 C38.07337394 91.63495666 37.14097629 92.70232369 36.1875 93.75 C35.17247695 94.94862621 34.15817456 96.14786301 33.14453125 97.34765625 C32.62197754 97.94980957 32.09942383 98.55196289 31.56103516 99.17236328 C29.06269555 102.0973821 26.72903756 105.14622251 24.375 108.1875 C23.46750103 109.3409113 22.55866385 110.49327107 21.6484375 111.64453125 C20.32432373 113.31931691 19.00317698 114.99591548 17.69238281 116.68115234 C16.46998637 118.25233799 15.23527352 119.81391809 14 121.375 C12.948125 122.71691406 12.948125 122.71691406 11.875 124.0859375 C11.25625 124.71757812 10.6375 125.34921875 10 126 C9.01 126 8.02 126 7 126 C5.24336474 124.04138229 3.6869021 122.10654959 2.125 120 C1.1446956 118.71372482 0.16286114 117.42861464 -0.8203125 116.14453125 C-1.33625977 115.46729004 -1.85220703 114.79004883 -2.38378906 114.09228516 C-4.56271444 111.27153131 -6.80767194 108.50816053 -9.06445312 105.74951172 C-10.18630841 104.37709143 -11.3022345 102.99980258 -12.41210938 101.61767578 C-14.67164172 98.80695448 -16.91713626 96.086484 -19.4140625 93.48046875 C-22.2200889 90.46762367 -23.94914158 88.39068994 -24.10351562 84.16943359 C-23.94399414 82.55029053 -23.94399414 82.55029053 -23.78125 80.8984375 C-23.66571777 79.65594238 -23.55018555 78.41344727 -23.43115234 77.13330078 C-23.28751905 75.75552508 -23.14379838 74.37775848 -23 73 C-22.85888095 71.52991011 -22.71910619 70.05969066 -22.58056641 68.58935547 C-22.20160115 64.62302134 -21.79611515 60.6599004 -21.38037109 56.69726562 C-21.12682321 54.26747215 -20.88165147 51.836925 -20.63671875 49.40625 C-19.51389932 38.52075041 -17.92124719 27.77253461 -16 17 C-32.64194789 25.01705811 -44.59610346 37.54513154 -51 55 C-52.32824803 59.93718367 -53.20403006 64.95187484 -54 70 C-58.29 70 -62.58 70 -67 70 C-68.13860371 53.77489712 -60.95409752 38.42845573 -51 26 C-39.71227947 13.04206391 -18.42180672 -4.16831095 0 0 Z " fill="#069DE3" transform="translate(182,135)"/>
<path d="M0 0 C4.29 0 8.58 0 13 0 C13.29390625 1.59714844 13.29390625 1.59714844 13.59375 3.2265625 C17.01879616 20.38359874 24.94921005 35.22730005 39.63671875 45.55859375 C55.60678837 55.29901638 71.35767141 58.57962946 89.90234375 55.3125 C93.05505142 54.39534868 95.98930277 53.30668356 99 52 C99.99902344 51.59910156 100.99804688 51.19820313 102.02734375 50.78515625 C117.99323205 43.69605527 128.25572472 30.37406222 134.77734375 14.49609375 C136.46173625 9.67969986 137.31738349 5.05136218 138 0 C142.29 0 146.58 0 151 0 C149.62727777 20.86537783 142.05260079 36.61496806 127 51 C126.23300781 51.73734375 125.46601563 52.4746875 124.67578125 53.234375 C107.53265352 68.25280269 86.039155 71.29129357 64.03857422 70.25 C52.0075959 69.26014609 37.64551399 63.64551399 29 55 C26.0614912 55.39180117 23.49801537 56.4179236 21 58 C20.75507813 58.55558594 20.51015625 59.11117187 20.2578125 59.68359375 C18.40624169 63.09347416 15.74763973 65.54124197 13 68.25 C12.4534375 68.80429687 11.906875 69.35859375 11.34375 69.9296875 C7.2533867 74 7.2533867 74 5 74 C4.690625 75.27875 4.38125 76.5575 4.0625 77.875 C1.94958217 84.22372008 -2.36515173 88.33520117 -7 93 C-7.74636719 93.77214844 -8.49273437 94.54429687 -9.26171875 95.33984375 C-17.03333694 103.28384534 -17.03333694 103.28384534 -22.375 103.375 C-25.85589619 103.30696946 -26.93022866 103.04360709 -30 101.125 C-33.2275598 97.69571771 -33.53422049 95.02062486 -33.4609375 90.42578125 C-32.58101307 85.79499249 -29.29436708 83.16049704 -26 80 C-24.71996094 78.68708984 -24.71996094 78.68708984 -23.4140625 77.34765625 C-14.76544992 68.50882491 -14.76544992 68.50882491 -10.15209961 67.17919922 C-6.38549849 65.77011523 -4.42044576 63.95223117 -1.56640625 61.1328125 C-1.08421127 60.6568161 -0.6020163 60.1808197 -0.10520935 59.69039917 C0.90384391 58.68841026 1.90785416 57.68131944 2.90698242 56.66943359 C4.44200631 55.12045271 5.99967707 53.59710224 7.56054688 52.07421875 C8.54051465 51.0952014 9.51908215 50.11477998 10.49609375 49.1328125 C11.82918579 47.80080811 11.82918579 47.80080811 13.18920898 46.44189453 C15.24998137 44.2126429 15.24998137 44.2126429 14.85864258 41.81616211 C13.79946334 39.57583389 12.58523578 37.52638691 11.25 35.4375 C4.48566855 24.34204984 0 13.15222898 0 0 Z " fill="#2A2A2A" transform="translate(115,215)"/>
<path d="M0 0 C8.50584325 6.10603105 13.66881572 14.17735695 15.52734375 24.4921875 C16.60736353 34.96237921 14.32649687 43.90466952 8.1875 52.45703125 C2.60358746 59.30225109 -4.73050553 63.8285107 -13.47265625 65.4921875 C-25.46117561 66.35254007 -34.22229995 65.27033953 -43.72265625 57.4921875 C-51.61507525 49.98506769 -55.5088919 40.65603731 -55.78515625 29.8671875 C-55.65870232 19.56119208 -51.86451151 10.71508607 -44.47265625 3.4921875 C-41.29456344 1.12287524 -38.02102402 -0.75052561 -34.47265625 -2.5078125 C-33.82554687 -2.848125 -33.1784375 -3.1884375 -32.51171875 -3.5390625 C-21.89489286 -8.37710974 -9.61326135 -5.86211513 0 0 Z " fill="#079DE2" transform="translate(210.47265625,60.5078125)"/>
<path d="M0 0 C5.33647057 2.80614408 9.25837818 7.61730252 12.17578125 12.7890625 C13.83291272 19.58330154 12.87444223 25.19099199 9.80078125 31.3515625 C6.38001416 36.72705364 1.79751061 39.35265271 -4.19921875 41.3515625 C-10.96153237 42.08424657 -16.69903291 41.58883013 -22.19921875 37.3515625 C-27.69844924 31.49793716 -30.74590397 25.7905173 -30.50390625 17.68359375 C-29.56734137 10.51527021 -25.45706188 6.21181803 -20.1015625 1.69921875 C-14.76964816 -2.07801009 -6.0830229 -1.79357336 0 0 Z " fill="#FAFDFC" transform="translate(199.19921875,70.6484375)"/>
<path d="M0 0 C-0.33 4.62 -0.66 9.24 -1 14 C-1.33 14 -1.66 14 -2 14 C-2 9.71 -2 5.42 -2 1 C-5.06523507 1.76104462 -8.12685493 2.53338612 -11.1875 3.3125 C-12.05181641 3.52583984 -12.91613281 3.73917969 -13.80664062 3.95898438 C-18.32382866 5.11856904 -22.13383849 6.27047396 -26 9 C-25.505 10.485 -25.505 10.485 -25 12 C-25.66 12.33 -26.32 12.66 -27 13 C-25.22555028 15.24606427 -24.41647515 15.95081002 -21.51953125 16.29296875 C-20.17955078 16.24076172 -20.17955078 16.24076172 -18.8125 16.1875 C-17.91144531 16.16042969 -17.01039063 16.13335937 -16.08203125 16.10546875 C-15.39496094 16.07066406 -14.70789063 16.03585938 -14 16 C-13.95745644 17.99954746 -13.95919217 20.00041636 -14 22 C-14.495 22.495 -14.495 22.495 -15 23 C-15.36290371 25.49515358 -15.66873337 27.97467451 -15.9375 30.48046875 C-16.02249756 31.24490799 -16.10749512 32.00934723 -16.19506836 32.79695129 C-16.37530656 34.42682229 -16.55337963 36.05693391 -16.72949219 37.68725586 C-16.99406175 40.13261406 -17.26594336 42.57706811 -17.5390625 45.02148438 C-18.46857383 53.44475125 -19.26569843 61.84384696 -19.75390625 70.3059082 C-20 73 -20 73 -21 76 C-21.14220279 77.66267874 -21.22020567 79.3315173 -21.25 81 C-21.28867188 82.299375 -21.28867188 82.299375 -21.328125 83.625 C-20.93579115 86.46474981 -20.0936911 87.14873629 -18 89 C-18 89.66 -18 90.32 -18 91 C-17.34 91 -16.68 91 -16 91 C-15.67 92.98 -15.34 94.96 -15 97 C-23.88827257 88.35862389 -23.88827257 88.35862389 -24.23779297 84.10839844 C-24.11549316 83.0362207 -23.99319336 81.96404297 -23.8671875 80.859375 C-23.73924805 79.62251953 -23.61130859 78.38566406 -23.47949219 77.11132812 C-23.40114136 76.44657471 -23.32279053 75.78182129 -23.24206543 75.09692383 C-22.99197697 72.93049942 -22.77909679 70.76303366 -22.57519531 68.59179688 C-22.20036377 64.62434591 -21.79619017 60.66061547 -21.38037109 56.69726562 C-21.12682321 54.26747215 -20.88165147 51.836925 -20.63671875 49.40625 C-19.51389932 38.52075041 -17.92124719 27.77253461 -16 17 C-32.64194789 25.01705811 -44.59610346 37.54513154 -51 55 C-52.32824803 59.93718367 -53.20403006 64.95187484 -54 70 C-58.29 70 -62.58 70 -67 70 C-68.13860371 53.77489712 -60.95409752 38.42845573 -51 26 C-39.4751357 12.76983058 -18.67929093 -3.73585819 0 0 Z " fill="#069DE3" transform="translate(182,135)"/>
<path d="M0 0 C8.46431796 6.07622158 13.7445465 14.19158114 15.52734375 24.4921875 C15.73774388 28.17652763 15.7164674 31.80777869 15.52734375 35.4921875 C15.19734375 35.4921875 14.86734375 35.4921875 14.52734375 35.4921875 C14.36298828 33.98978516 14.36298828 33.98978516 14.1953125 32.45703125 C13.08770338 22.63994133 13.08770338 22.63994133 9.52734375 13.4921875 C7.54734375 14.4821875 7.54734375 14.4821875 5.52734375 15.4921875 C4.32106367 13.16004602 3.36186995 10.99576611 2.52734375 8.4921875 C1.53734375 8.1621875 0.54734375 7.8321875 -0.47265625 7.4921875 C0.51734375 6.8321875 1.50734375 6.1721875 2.52734375 5.4921875 C-7.0442503 -2.9664305 -16.10757909 -2.67515941 -28.47265625 -2.5078125 C-28.74078125 -1.8684375 -29.00890625 -1.2290625 -29.28515625 -0.5703125 C-30.47265625 1.4921875 -30.47265625 1.4921875 -33.47265625 2.4921875 C-33.80265625 3.4821875 -34.13265625 4.4721875 -34.47265625 5.4921875 C-33.48265625 5.8221875 -32.49265625 6.1521875 -31.47265625 6.4921875 C-31.80265625 7.1521875 -32.13265625 7.8121875 -32.47265625 8.4921875 C-31.33828125 8.3271875 -30.20390625 8.1621875 -29.03515625 7.9921875 C-16.74784186 6.48628218 -16.74784186 6.48628218 -11.47265625 9.4921875 C-14.2773699 10.89454433 -16.53737555 10.43764824 -19.66015625 10.3046875 C-26.45027807 10.26725574 -29.98531758 11.07964429 -34.9296875 15.91796875 C-39.45617605 20.96624273 -40.92022875 25.424124 -40.80859375 32.06640625 C-40.23132832 36.23479961 -38.42640992 39.80273303 -36.47265625 43.4921875 C-38.12265625 43.1621875 -39.77265625 42.8321875 -41.47265625 42.4921875 C-42.34075064 37.29045655 -42.59780973 32.32239934 -42.53515625 27.0546875 C-42.53064453 26.32314453 -42.52613281 25.59160156 -42.52148438 24.83789062 C-42.50983773 23.05595331 -42.49190816 21.27405887 -42.47265625 19.4921875 C-44.45265625 19.4921875 -46.43265625 19.4921875 -48.47265625 19.4921875 C-52.95489619 25.65526742 -53.31601956 30.9891622 -52.47265625 38.4921875 C-51.7049698 41.6068011 -50.72487878 44.54052011 -49.47265625 47.4921875 C-48.81265625 47.4921875 -48.15265625 47.4921875 -47.47265625 47.4921875 C-47.06015625 48.3996875 -46.64765625 49.3071875 -46.22265625 50.2421875 C-44.58214907 53.28884368 -43.02547264 55.20345556 -40.47265625 57.4921875 C-40.96765625 58.4821875 -40.96765625 58.4821875 -41.47265625 59.4921875 C-49.63758534 52.63171453 -54.77840811 43.43620716 -55.7109375 32.765625 C-55.98186821 22.18506784 -53.35987042 13.67931859 -46.5234375 5.49609375 C-42.94711111 2.00151197 -38.92977119 -0.30047939 -34.47265625 -2.5078125 C-33.82554687 -2.848125 -33.1784375 -3.1884375 -32.51171875 -3.5390625 C-21.89489286 -8.37710974 -9.61326135 -5.86211513 0 0 Z " fill="#0F9DDE" transform="translate(210.47265625,60.5078125)"/>
<path d="M0 0 C5.03984962 0.47998568 7.91817112 2.07173145 12 5 C12.763125 5.350625 13.52625 5.70125 14.3125 6.0625 C16 7 16 7 17 10 C17.66 10.33 18.32 10.66 19 11 C20.125 13.0625 20.125 13.0625 21 15 C23.99383194 14.2804095 23.99383194 14.2804095 25.4375 12.375 C27 11 27 11 28.875 11 C36.41832305 14.54979908 39.16380494 22.73836264 42 30 C44.32535587 37.10621811 45.37318518 43.53629633 45 51 C40.71 51 36.42 51 32 51 C31.87625 50.1028125 31.7525 49.205625 31.625 48.28125 C28.76609696 30.9848866 21.0945951 16.56165016 7.07421875 5.7421875 C5.33948569 4.53008264 3.58388913 3.34677827 1.80078125 2.20703125 C0.90939453 1.60955078 0.90939453 1.60955078 0 1 C0 0.67 0 0.34 0 0 Z " fill="#119CDE" transform="translate(221,154)"/>
<path d="M0 0 C0.33 0.66 0.66 1.32 1 2 C2.32 1.67 3.64 1.34 5 1 C5 1.66 5 2.32 5 3 C5.99 3.33 6.98 3.66 8 4 C7.3243315 6.99614619 6.36045225 9.72591827 5.1875 12.5625 C1.50100849 21.70499896 -1.47588249 30.22024597 -3 40 C-7.29 40 -11.58 40 -16 40 C-16.19110435 33.98021304 -16.36397437 27.66342523 -14 22 C-13.01 21.67 -12.02 21.34 -11 21 C-11 20.01 -11 19.02 -11 18 C-10.01 18 -9.02 18 -8 18 C-7.87625 17.030625 -7.7525 16.06125 -7.625 15.0625 C-7.41875 14.051875 -7.2125 13.04125 -7 12 C-6.34 11.67 -5.68 11.34 -5 11 C-4.87625 10.46375 -4.7525 9.9275 -4.625 9.375 C-3.70204962 5.86778855 -1.85472096 3.11114484 0 0 Z " fill="#089DE0" transform="translate(131,165)"/>
<path d="M0 0 C2.62748631 0.05985162 5.24916995 0.14676224 7.875 0.25 C8.62136719 0.26417969 9.36773437 0.27835938 10.13671875 0.29296875 C12.3046875 0.390625 12.3046875 0.390625 16 1 C17.34375 2.96875 17.34375 2.96875 18 5 C20.53770003 6.28254644 20.53770003 6.28254644 23 7 C22.67 7.99 22.34 8.98 22 10 C22.27571139 12.00875442 22.60235737 14.01178687 23 16 C21.35 16 19.7 16 18 16 C18 15.34 18 14.68 18 14 C16.02 14.33 14.04 14.66 12 15 C11.67 16.98 11.34 18.96 11 21 C10.01 21 9.02 21 8 21 C7.67 21.66 7.34 22.32 7 23 C6.34 23 5.68 23 5 23 C5 23.66 5 24.32 5 25 C4.34 25 3.68 25 3 25 C3 19.39 3 13.78 3 8 C2.01 8.495 2.01 8.495 1 9 C0.67 6.03 0.34 3.06 0 0 Z " fill="#059DE4" transform="translate(202,137)"/>
<path d="M0 0 C0.33 0 0.66 0 1 0 C1.02886537 4.31248609 1.04675255 8.62494762 1.0625 12.9375 C1.07087891 14.16919922 1.07925781 15.40089844 1.08789062 16.66992188 C1.09111328 17.83974609 1.09433594 19.00957031 1.09765625 20.21484375 C1.10289307 21.29886475 1.10812988 22.38288574 1.11352539 23.49975586 C1 26 1 26 0 27 C-0.21590338 28.59828477 -0.37120397 30.20484952 -0.5 31.8125 C-0.5825 32.80636719 -0.665 33.80023438 -0.75 34.82421875 C-0.8325 35.87222656 -0.915 36.92023438 -1 38 C-1.1656174 40.04175205 -1.33227074 42.08342035 -1.5 44.125 C-1.57992187 45.11757812 -1.65984375 46.11015625 -1.7421875 47.1328125 C-2.04103937 50.45640753 -2.45093841 53.75804701 -2.9140625 57.0625 C-3.01312978 59.29601691 -2.81793519 60.91471467 -2 63 C-1.01 63.33 -0.02 63.66 1 64 C3.77865477 66.44184813 5.48545949 68.64637458 7 72 C7.66 72.99 8.32 73.98 9 75 C9.33 75.66 9.66 76.32 10 77 C11.485 77.495 11.485 77.495 13 78 C13.2475 77.443125 13.495 76.88625 13.75 76.3125 C15.22924818 73.57589087 16.93467439 71.32349131 19 69 C19.66 69 20.32 69 21 69 C21 68.34 21 67.68 21 67 C21.66 67 22.32 67 23 67 C21.3718356 70.75730247 18.98598083 73.616823 16.375 76.75 C15.55773437 77.73484375 14.74046875 78.7196875 13.8984375 79.734375 C13.27195313 80.48203125 12.64546875 81.2296875 12 82 C8.03194977 78.20541645 4.65383433 74.16305368 1.3125 69.8125 C-2.15755057 65.24680186 -2.15755057 65.24680186 -6 61 C-6.59062023 52.31216693 -5.15794832 43.61643436 -4.125 35 C-3.94874553 33.4987534 -3.77296156 31.99745148 -3.59765625 30.49609375 C-3.16060776 26.76280672 -2.7176654 23.03024653 -2.27307129 19.29785156 C-1.80082733 15.32399359 -1.334203 11.34947524 -0.8671875 7.375 C-0.69906314 5.94531166 -0.53093235 4.51562407 -0.36279297 3.0859375 C-0.18321045 1.55839844 -0.18321045 1.55839844 0 0 Z " fill="#C7F2FA" transform="translate(179,157)"/>
<path d="M0 0 C-0.11433363 2.25056722 -0.24186436 4.50046674 -0.375 6.75 C-0.44460937 8.00296875 -0.51421875 9.2559375 -0.5859375 10.546875 C-1 14 -1 14 -3 18 C-3 13.38 -3 8.76 -3 4 C-4.27875 4.825 -5.5575 5.65 -6.875 6.5 C-10.75 9 -10.75 9 -13 9 C-13 9.99 -13 10.98 -13 12 C-14.0828125 12.61875 -14.0828125 12.61875 -15.1875 13.25 C-18.44871216 15.27919868 -19.85827386 17.38288689 -21.88671875 20.57421875 C-22.25410156 21.04472656 -22.62148437 21.51523438 -23 22 C-23.66 22 -24.32 22 -25 22 C-25.12375 22.598125 -25.2475 23.19625 -25.375 23.8125 C-26 26 -26 26 -28 29 C-28.66 29 -29.32 29 -30 29 C-30.10957031 29.64066406 -30.21914062 30.28132813 -30.33203125 30.94140625 C-31.32460328 36.3561691 -32.62458653 41.03322639 -35 46 C-35.66 46 -36.32 46 -37 46 C-36.51828161 39.99190118 -35.2533111 35.46839018 -32.5 30.125 C-31.96922852 29.08291382 -31.96922852 29.08291382 -31.42773438 28.01977539 C-28.13936813 21.82241439 -24.08831808 16.83748549 -19 12 C-18.3296875 11.34515625 -17.659375 10.6903125 -16.96875 10.015625 C-6.18269231 0 -6.18269231 0 0 0 Z " fill="#D6F8FC" transform="translate(166,152)"/>
<path d="M0 0 C2.31 0 4.62 0 7 0 C7.04254356 1.99954746 7.04080783 4.00041636 7 6 C6.67 6.33 6.34 6.66 6 7 C5.63709629 9.49515358 5.33126663 11.97467451 5.0625 14.48046875 C4.97750244 15.24490799 4.89250488 16.00934723 4.80493164 16.79695129 C4.62469344 18.42682229 4.44662037 20.05693391 4.27050781 21.68725586 C4.00593825 24.13261406 3.73405664 26.57706811 3.4609375 29.02148438 C2.53142617 37.44475125 1.73430157 45.84384696 1.24609375 54.3059082 C1 57 1 57 0 60 C-0.14220279 61.66267874 -0.22020567 63.3315173 -0.25 65 C-0.27578125 65.86625 -0.3015625 66.7325 -0.328125 67.625 C0.06420885 70.46474981 0.9063089 71.14873629 3 73 C3 73.66 3 74.32 3 75 C3.66 75 4.32 75 5 75 C5.33 76.98 5.66 78.96 6 81 C-2.88827257 72.35862389 -2.88827257 72.35862389 -3.23779297 68.10839844 C-3.05434326 66.50013184 -3.05434326 66.50013184 -2.8671875 64.859375 C-2.73924805 63.62251953 -2.61130859 62.38566406 -2.47949219 61.11132812 C-2.40114136 60.44657471 -2.32279053 59.78182129 -2.24206543 59.09692383 C-1.99197697 56.93049942 -1.77909679 54.76303366 -1.57519531 52.59179688 C-1.20036377 48.62434591 -0.79619017 44.66061547 -0.38037109 40.69726562 C-0.12682321 38.26747215 0.11834853 35.836925 0.36328125 33.40625 C1.48610068 22.52075041 3.07875281 11.77253461 5 1 C-1.29927675 4.33742169 -7.30577098 7.69769363 -13 12 C-11.332467 8.05855836 -9.01998049 5.01998049 -6 2 C-2.6875 1.625 -2.6875 1.625 0 2 C0 1.34 0 0.68 0 0 Z " fill="#3999C9" transform="translate(161,151)"/>
<path d="M0 0 C8.46431796 6.07622158 13.7445465 14.19158114 15.52734375 24.4921875 C15.73774388 28.17652763 15.7164674 31.80777869 15.52734375 35.4921875 C15.19734375 35.4921875 14.86734375 35.4921875 14.52734375 35.4921875 C14.41777344 34.49058594 14.30820313 33.48898438 14.1953125 32.45703125 C13.08770338 22.63994133 13.08770338 22.63994133 9.52734375 13.4921875 C7.54734375 14.4821875 7.54734375 14.4821875 5.52734375 15.4921875 C4.32106367 13.16004602 3.36186995 10.99576611 2.52734375 8.4921875 C1.53734375 8.1621875 0.54734375 7.8321875 -0.47265625 7.4921875 C0.51734375 6.8321875 1.50734375 6.1721875 2.52734375 5.4921875 C-6.28465909 -2.29516384 -14.95178106 -2.93573072 -26.47265625 -2.5078125 C-29.16404057 -2.26237179 -31.798734 -1.91142341 -34.47265625 -1.5078125 C-24.75929303 -9.48664657 -9.90920914 -6.04258251 0 0 Z " fill="#3B9AC6" transform="translate(210.47265625,60.5078125)"/>
<path d="M0 0 C1.4540625 0.0309375 1.4540625 0.0309375 2.9375 0.0625 C3.2675 1.0525 3.5975 2.0425 3.9375 3.0625 C2.6175 2.7325 1.2975 2.4025 -0.0625 2.0625 C-0.2130601 9.00663637 0.36082333 15.64478747 1.25 22.52734375 C1.38317627 23.60069473 1.51635254 24.67404572 1.65356445 25.77992249 C2.21867771 30.33441011 2.79630773 34.88728172 3.37402344 39.44018555 C3.79603761 42.78113104 4.21072076 46.12293168 4.625 49.46484375 C4.75624268 50.47868637 4.88748535 51.49252899 5.02270508 52.53709412 C6.72137739 66.27123287 6.72137739 66.27123287 5.9375 71.0625 C4.4206543 72.84141541 4.4206543 72.84141541 2.9375 74.0625 C2.98390625 73.2065625 3.0303125 72.350625 3.078125 71.46875 C3.37312594 60.93300226 2.33567041 50.6832839 1 40.25 C0.86289612 39.17274658 0.86289612 39.17274658 0.72302246 38.07373047 C-0.33044915 29.50720641 -0.33044915 29.50720641 -2.0625 21.0625 C-2.12993348 18.98015408 -2.14764472 16.89581443 -2.125 14.8125 C-2.11146484 13.19601563 -2.11146484 13.19601563 -2.09765625 11.546875 C-2.08605469 10.72703125 -2.07445312 9.9071875 -2.0625 9.0625 C-2.7225 9.0625 -3.3825 9.0625 -4.0625 9.0625 C-4.16015625 2.91015625 -4.16015625 2.91015625 -4.0625 1.0625 C-3.0625 0.0625 -3.0625 0.0625 0 0 Z " fill="#3198C7" transform="translate(217.0625,150.9375)"/>
<path d="M0 0 C5.03984962 0.47998568 7.91817112 2.07173145 12 5 C12.763125 5.350625 13.52625 5.70125 14.3125 6.0625 C16 7 16 7 17 10 C17.66 10.33 18.32 10.66 19 11 C20.57548683 13.62581138 21 14.87099787 21 18 C24.96 17.505 24.96 17.505 29 17 C28.97679687 17.6290625 28.95359375 18.258125 28.9296875 18.90625 C28.83893279 23.21061623 28.86688314 27.1391189 30 31.3125 C30.8527727 34.45709935 31.20090625 36.78549998 31 40 C29.73754881 37.53790614 28.57609523 35.05657284 27.44140625 32.53125 C21.45733561 19.50528572 14.03664154 10.02808658 1.80078125 2.20703125 C0.90939453 1.60955078 0.90939453 1.60955078 0 1 C0 0.67 0 0.34 0 0 Z " fill="#249EDC" transform="translate(221,154)"/>
<path d="M0 0 C0.33 0 0.66 0 1 0 C0.56880324 13.57526361 -0.74893203 26.85184443 -2.62695312 40.29931641 C-4.8719919 54.60643702 -4.8719919 54.60643702 -5 69 C-3.55605858 70.72090918 -3.55605858 70.72090918 -2 72 C-2.495 72.99 -2.495 72.99 -3 74 C-6.875 72.25 -6.875 72.25 -8 70 C-8.07033769 68.12620395 -8.0843022 66.24998898 -8.0625 64.375 C-8.05347656 63.37210938 -8.04445312 62.36921875 -8.03515625 61.3359375 C-8.02355469 60.56507813 -8.01195312 59.79421875 -8 59 C-7.34 59 -6.68 59 -6 59 C-6.01667725 58.44779785 -6.03335449 57.8955957 -6.05053711 57.32666016 C-6.17636869 49.60325858 -5.39440441 42.04615099 -4.5625 34.375 C-3.55031511 24.8350956 -2.65447485 15.32862084 -2.30859375 5.73828125 C-2 3 -2 3 0 0 Z " fill="#2795C7" transform="translate(179,149)"/>
<path d="M0 0 C0.495 0.99 0.495 0.99 1 2 C0.67 2.66 0.34 3.32 0 4 C-0.66 4 -1.32 4 -2 4 C-2.33 4.99 -2.66 5.98 -3 7 C-5.58203125 8.1328125 -5.58203125 8.1328125 -8.8125 9.125 C-9.87082031 9.45757812 -10.92914063 9.79015625 -12.01953125 10.1328125 C-13.00308594 10.41898438 -13.98664063 10.70515625 -15 11 C-15.64066406 11.21398437 -16.28132813 11.42796875 -16.94140625 11.6484375 C-20.05437889 12.18006471 -22.98925675 11.78804322 -26.125 11.5 C-30.7181339 10.84780224 -30.7181339 10.84780224 -35 12 C-35 11.01 -35 10.02 -35 9 C-37.31 9 -39.62 9 -42 9 C-42.33 7.35 -42.66 5.7 -43 4 C-42.37996094 4.28875 -41.75992188 4.5775 -41.12109375 4.875 C-31.27854534 9.00113383 -21.12458004 9.74271316 -10.9375 6.25 C-6.93575454 4.57762876 -3.45467286 2.61434703 0 0 Z " fill="#C6F1F9" transform="translate(214,117)"/>
<path d="M0 0 C2.94956528 1.36944102 5.52468811 2.87830409 8 5 C8 5.66 8 6.32 8 7 C9.98 7.66 11.96 8.32 14 9 C13.34 9.66 12.68 10.32 12 11 C10.06201737 13.77260299 10.06201737 13.77260299 9 16 C8.01 15.67 7.02 15.34 6 15 C6 14.34 6 13.68 6 13 C5.05125 12.54625 4.1025 12.0925 3.125 11.625 C0 10 0 10 -2 8 C-2 7.01 -2 6.02 -2 5 C-1.34 4.67 -0.68 4.34 0 4 C0 2.68 0 1.36 0 0 Z " fill="#059DE6" transform="translate(230,148)"/>
<path d="M0 0 C0.66 0.99 1.32 1.98 2 3 C0.28616342 6.98589421 -2.37444885 10.20243607 -5.0625 13.5625 C-5.79243164 14.47926514 -5.79243164 14.47926514 -6.53710938 15.41455078 C-7.53631332 16.66746395 -8.53713041 17.91909231 -9.53955078 19.16943359 C-10.91303909 20.89100085 -12.26915265 22.62477515 -13.62109375 24.36328125 C-14.40613281 25.35714844 -15.19117188 26.35101563 -16 27.375 C-16.70125 28.26960938 -17.4025 29.16421875 -18.125 30.0859375 C-19.053125 31.03339844 -19.053125 31.03339844 -20 32 C-20.99 32 -21.98 32 -23 32 C-24.6875 29.5 -24.6875 29.5 -26 27 C-24.68 27.33 -23.36 27.66 -22 28 C-22 28.66 -22 29.32 -22 30 C-21.34 29.67 -20.68 29.34 -20 29 C-19.53476937 27.10466658 -19.53476937 27.10466658 -19.375 24.9375 C-19.189375 22.9884375 -19.189375 22.9884375 -19 21 C-18.071875 21.309375 -18.071875 21.309375 -17.125 21.625 C-16.42375 21.74875 -15.7225 21.8725 -15 22 C-12.8614515 19.8614515 -12.57344937 18.86724686 -12 16 C-10.68 15.67 -9.36 15.34 -8 15 C-8 13.68 -8 12.36 -8 11 C-6.625 9.25 -6.625 9.25 -5 8 C-4.34 8 -3.68 8 -3 8 C-2.67 7.01 -2.34 6.02 -2 5 C-1.34 5 -0.68 5 0 5 C0 3.35 0 1.7 0 0 Z " fill="#2499D0" transform="translate(212,229)"/>
<path d="M0 0 C0.33 0.66 0.66 1.32 1 2 C0.67 2.99 0.34 3.98 0 5 C-0.66 5 -1.32 5 -2 5 C-5.18402011 16.14407038 -5.60903612 28.24558238 -1 39 C-0.34 39 0.32 39 1 39 C1.4125 39.9075 1.825 40.815 2.25 41.75 C3.89050718 44.79665618 5.44718361 46.71126806 8 49 C7.67 49.66 7.34 50.32 7 51 C-1.16492909 44.13952703 -6.30575186 34.94401966 -7.23828125 24.2734375 C-7.47115652 15.17904529 -5.81571325 7.19881984 0 0 Z " fill="#2C94C3" transform="translate(162,69)"/>
<path d="M0 0 C0.33 1.32 0.66 2.64 1 4 C0.236875 4.350625 -0.52625 4.70125 -1.3125 5.0625 C-4.8069493 7.58175414 -5.48884454 10.01604471 -7 14 C-7.98879205 15.67334039 -8.98648336 17.34151823 -10 19 C-10.33 19.99 -10.66 20.98 -11 22 C-11.66 22 -12.32 22 -13 22 C-13.33 23.98 -13.66 25.96 -14 28 C-14.99 28 -15.98 28 -17 28 C-17 28.99 -17 29.98 -17 31 C-17.66 31 -18.32 31 -19 31 C-15.48128037 18.89903739 -9.18234154 8.6422038 0 0 Z " fill="#139CDE" transform="translate(137,155)"/>
<path d="M0 0 C12.1875 1.875 12.1875 1.875 17 4 C13.42619658 5.19126781 11.49116698 4.7349445 7.8125 4.0625 C6.72582031 3.86785156 5.63914063 3.67320312 4.51953125 3.47265625 C3.68808594 3.31667969 2.85664063 3.16070312 2 3 C2.31065326 6.64599311 2.62386424 10.29176234 2.9375 13.9375 C3.02451172 14.95908203 3.11152344 15.98066406 3.20117188 17.03320312 C3.60075735 21.66543479 4.01942791 26.28845065 4.5625 30.90625 C4.9332964 34.14112895 5.10841975 37.3021976 5.0625 40.5625 C5.05347656 41.40941406 5.04445312 42.25632813 5.03515625 43.12890625 C5.02355469 43.74636719 5.01195312 44.36382812 5 45 C4.67 45 4.34 45 4 45 C3.4194953 40.68211032 2.85042306 36.36289763 2.29101562 32.04223633 C2.09999165 30.57862731 1.90607524 29.11539229 1.70898438 27.65258789 C0.46207095 18.38025978 -0.29282559 9.38160304 0 0 Z " fill="#2E94C5" transform="translate(200,134)"/>
<path d="M0 0 C4.70929167 1.56976389 7.71796504 3.64960257 10.125 8.0625 C10.41375 8.701875 10.7025 9.34125 11 10 C11.99 11.485 11.99 11.485 13 13 C13.33 13.66 13.66 14.32 14 15 C14.99 15.33 15.98 15.66 17 16 C17.2475 15.443125 17.495 14.88625 17.75 14.3125 C19.22924818 11.57589087 20.93467439 9.32349131 23 7 C23.66 7 24.32 7 25 7 C25 6.34 25 5.68 25 5 C25.66 5 26.32 5 27 5 C25.3718356 8.75730247 22.98598083 11.616823 20.375 14.75 C19.55773437 15.73484375 18.74046875 16.7196875 17.8984375 17.734375 C17.27195313 18.48203125 16.64546875 19.2296875 16 20 C12.01095884 16.17868818 8.57432051 12.1090053 5.1875 7.75 C4.68541016 7.11320313 4.18332031 6.47640625 3.66601562 5.8203125 C0 1.13180272 0 1.13180272 0 0 Z " fill="#D1F7FD" transform="translate(175,219)"/>
<path d="M0 0 C-0.33 4.62 -0.66 9.24 -1 14 C-1.33 14 -1.66 14 -2 14 C-2 9.71 -2 5.42 -2 1 C-5.06523507 1.76104462 -8.12685493 2.53338612 -11.1875 3.3125 C-12.05181641 3.52583984 -12.91613281 3.73917969 -13.80664062 3.95898438 C-18.38147753 5.13336779 -21.99287279 6.42668479 -26 9 C-26.99 9 -27.98 9 -29 9 C-29.33 9.99 -29.66 10.98 -30 12 C-31.32 11.67 -32.64 11.34 -34 11 C-23.88197737 4.70931792 -12.27746164 -2.45549233 0 0 Z " fill="#2E96C6" transform="translate(182,135)"/>
<path d="M0 0 C2.31 0 4.62 0 7 0 C7.04254356 1.99954746 7.04080783 4.00041636 7 6 C6.67 6.33 6.34 6.66 6 7 C5.77486899 8.33802186 5.60639193 9.68573023 5.46484375 11.03515625 C5.37783203 11.84404297 5.29082031 12.65292969 5.20117188 13.48632812 C5.11416016 14.33646484 5.02714844 15.18660156 4.9375 16.0625 C4.84662109 16.91650391 4.75574219 17.77050781 4.66210938 18.65039062 C4.43749278 20.76651535 4.21824773 22.88320894 4 25 C3.67 25 3.34 25 3 25 C2.66146705 16.83759432 3.70098079 9.04927976 5 1 C-1.30839521 4.31960761 -7.30784406 7.69925996 -13 12 C-11.332467 8.05855836 -9.01998049 5.01998049 -6 2 C-2.6875 1.625 -2.6875 1.625 0 2 C0 1.34 0 0.68 0 0 Z " fill="#2396C7" transform="translate(161,151)"/>
<path d="M0 0 C0.33 0 0.66 0 1 0 C0.54256341 15.14272838 -0.91762779 29.99634171 -3 45 C-3.33 45 -3.66 45 -4 45 C-3.93010815 40.68022015 -3.84168554 36.36129444 -3.73754883 32.04223633 C-3.70470763 30.57912094 -3.6765552 29.11589122 -3.65356445 27.65258789 C-3.49828785 18.0221346 -2.61676808 9.32596333 0 0 Z " fill="#C9F3FB" transform="translate(162,171)"/>
<path d="M0 0 C-10.7190724 7.83024437 -19.57210234 10.32427835 -33 9 C-36.56464693 8.05914523 -39.84311037 6.92219502 -43 5 C-43.33 4.34 -43.66 3.68 -44 3 C-40.67653943 3.39565007 -38.31984318 3.80497367 -35.4375 5.5625 C-28.84297814 8.32020914 -20.97433399 8.00400625 -14.25 5.625 C-10.9375 4.375 -10.9375 4.375 -10 2 C-8.22265625 1.11328125 -8.22265625 1.11328125 -6.0625 0.3125 C-5.35222656 0.04050781 -4.64195312 -0.23148437 -3.91015625 -0.51171875 C-2 -1 -2 -1 0 0 Z " fill="#2A97C5" transform="translate(215,117)"/>
<path d="M0 0 C3.3 1.65 6.6 3.3 10 5 C10 5.99 10 6.98 10 8 C7.69 7.01 5.38 6.02 3 5 C3 11.93 3 18.86 3 26 C2.67 26 2.34 26 2 26 C0.7886922 17.28290997 -0.27574313 8.82378029 0 0 Z " fill="#C4F2FA" transform="translate(216,152)"/>
<path d="M0 0 C1.625 0.828125 1.625 0.828125 3.8125 2.328125 C2.0625 2.953125 2.0625 2.953125 -0.1875 3.328125 C-0.79207031 3.01617187 -1.39664063 2.70421875 -2.01953125 2.3828125 C-5.9049311 0.49261798 -9.98823489 0.51426091 -14.1875 1.328125 C-16.32895104 3.09508584 -17.55067019 5.03656327 -19.1875 7.328125 C-20.84299531 7.71312391 -22.5097433 8.05605635 -24.1875 8.328125 C-25.54770151 10.29570773 -25.54770151 10.29570773 -26.1875 12.328125 C-26.8475 12.328125 -27.5075 12.328125 -28.1875 12.328125 C-26.83907445 6.76586961 -22.62060121 3.59369659 -18.1875 0.328125 C-12.67535127 -1.50925791 -5.58556977 -1.71556786 0 0 Z " fill="#D9F7FC" transform="translate(199.1875,70.671875)"/>
<path d="M0 0 C3.1875 -0.375 3.1875 -0.375 7 0 C12.24820342 4.89037137 14.86364305 10.93165129 16 18 C16.06533435 19.93651019 16.08584303 21.87502861 16.0625 23.8125 C16.05347656 24.78832031 16.04445312 25.76414062 16.03515625 26.76953125 C16.02355469 27.50558594 16.01195312 28.24164063 16 29 C15.67 29 15.34 29 15 29 C14.89042969 27.99839844 14.78085938 26.99679688 14.66796875 25.96484375 C13.56035963 16.14775383 13.56035963 16.14775383 10 7 C8.02 7.99 8.02 7.99 6 9 C4.79371992 6.66785852 3.8345262 4.50357861 3 2 C2.01 1.67 1.02 1.34 0 1 C0 0.67 0 0.34 0 0 Z " fill="#2598D0" transform="translate(210,67)"/>
<path d="M0 0 C0.33 0 0.66 0 1 0 C1.20674944 5.78898419 0.59162079 10.42932723 -1 16 C2.63 16 6.26 16 10 16 C10.06058594 15.01257813 10.12117188 14.02515625 10.18359375 13.0078125 C10.26738281 11.72648438 10.35117188 10.44515625 10.4375 9.125 C10.51871094 7.84882813 10.59992188 6.57265625 10.68359375 5.2578125 C11 2 11 2 12 0 C12.66 0 13.32 0 14 0 C13.86722656 0.71285156 13.73445312 1.42570313 13.59765625 2.16015625 C12.62594212 7.43010955 11.7082546 12.6880905 11 18 C6.71 18 2.42 18 -2 18 C-2.20190089 11.64012196 -1.6277833 6.14778871 0 0 Z " fill="#3A99C6" transform="translate(117,187)"/>
<path d="M0 0 C1 3 1 3 -0.5625 6.25 C-3.1839582 10.54298033 -6.41250057 15.70625028 -11 18 C-12.99960012 18.039992 -15.00047242 18.04346799 -17 18 C-17.33 17.34 -17.66 16.68 -18 16 C-17.67 15.34 -17.34 14.68 -17 14 C-17.66 13.67 -18.32 13.34 -19 13 C-16 13 -16 13 -14.3125 14.5 C-13.879375 14.995 -13.44625 15.49 -13 16 C-11.20639298 13.89746067 -9.41505881 11.79305667 -7.625 9.6875 C-7.11710938 9.09259766 -6.60921875 8.49769531 -6.0859375 7.88476562 C-5.35117188 7.01948242 -5.35117188 7.01948242 -4.6015625 6.13671875 C-4.15119629 5.60780029 -3.70083008 5.07888184 -3.23681641 4.53393555 C-2.07125727 3.08837533 -1.03003696 1.54505544 0 0 Z " fill="#CFF5FC" transform="translate(204,245)"/>
<path d="M0 0 C1.4540625 0.0309375 1.4540625 0.0309375 2.9375 0.0625 C3.2675 1.0525 3.5975 2.0425 3.9375 3.0625 C2.6175 2.7325 1.2975 2.4025 -0.0625 2.0625 C-0.1348853 6.62277393 -0.12942261 11.03510393 0.4375 15.5625 C1.00442261 20.08989607 1.0098853 24.50222607 0.9375 29.0625 C-1.68261257 24.17162321 -2.18530378 20.3604475 -2.125 14.8125 C-2.11146484 13.19601563 -2.11146484 13.19601563 -2.09765625 11.546875 C-2.08605469 10.72703125 -2.07445312 9.9071875 -2.0625 9.0625 C-2.7225 9.0625 -3.3825 9.0625 -4.0625 9.0625 C-4.16015625 2.91015625 -4.16015625 2.91015625 -4.0625 1.0625 C-3.0625 0.0625 -3.0625 0.0625 0 0 Z " fill="#2393CA" transform="translate(217.0625,150.9375)"/>
<path d="M0 0 C7.59 0 15.18 0 23 0 C23 0.99 23 1.98 23 3 C25.64 3.33 28.28 3.66 31 4 C31 4.66 31 5.32 31 6 C31.99 6 32.98 6 34 6 C34 7.32 34 8.64 34 10 C32.01653663 9.01267601 30.03750023 8.01943332 28.0703125 7 C27.42835938 6.67 26.78640625 6.34 26.125 6 C25.48820312 5.67 24.85140625 5.34 24.1953125 5 C18.48289984 2.39790455 13.80489836 1.7297221 7.625 1.875 C6.88894531 1.88402344 6.15289062 1.89304688 5.39453125 1.90234375 C3.5962112 1.92569856 1.79806089 1.96156164 0 2 C0 1.34 0 0.68 0 0 Z " fill="#D8FAFE" transform="translate(181,54)"/>
<path d="M0 0 C-0.03480469 0.94359375 -0.03480469 0.94359375 -0.0703125 1.90625 C-0.16106721 6.21061623 -0.13311686 10.1391189 1 14.3125 C1.8527727 17.45709935 2.20090625 19.78549998 2 23 C-5.50262094 8.13434177 -5.50262094 8.13434177 -6 2 C-2.25 0 -2.25 0 0 0 Z " fill="#189AD5" transform="translate(250,171)"/>
<path d="M0 0 C0.825 0.28875 1.65 0.5775 2.5 0.875 C6.30795181 2.09898451 10.11270827 3.0616882 14 4 C14 4.66 14 5.32 14 6 C15.5778125 5.2575 15.5778125 5.2575 17.1875 4.5 C20.25452609 3.17220212 22.62134936 2.69284994 26 3 C26.33 2.34 26.66 1.68 27 1 C27 1.99 27 2.98 27 4 C21.3053357 6.9711292 16.41056063 7.92008046 10 7 C5.48611743 5.46783354 2.66900259 4.00350389 0 0 Z " fill="#C8F2FB" transform="translate(175,105)"/>
<path d="M0 0 C2.31 0.66 4.62 1.32 7 2 C7 2.99 7 3.98 7 5 C9.475 5.99 9.475 5.99 12 7 C12 7.99 12 8.98 12 10 C12.99 10 13.98 10 15 10 C17.10770759 12.88834003 18 14.38462395 18 18 C18.66 18 19.32 18 20 18 C19.67 19.32 19.34 20.64 19 22 C18.5153125 21.29875 18.030625 20.5975 17.53125 19.875 C13.13750505 13.65616099 8.54199764 8.21021508 3 3 C1.99660828 2.00340326 0.99539531 1.00458358 0 0 Z " fill="#D1F6FC" transform="translate(237,149)"/>
<path d="M0 0 C0.33 0 0.66 0 1 0 C1.57530687 4.42840931 2.14476017 8.85752181 2.70898438 13.28735352 C2.90141766 14.79178786 3.09540223 16.29602467 3.29101562 17.80004883 C3.57317349 19.97165672 3.84960035 22.14393219 4.125 24.31640625 C4.29257813 25.62037354 4.46015625 26.92434082 4.6328125 28.26782227 C5.53174403 37.40476792 5.53174403 37.40476792 4 42 C3.01 42 2.02 42 1 42 C1.33 41.01 1.66 40.02 2 39 C2.57777284 31.1396021 1.71884393 23.36908446 0.71166992 15.58374023 C0.05613354 10.3493727 -0.08350661 5.27657412 0 0 Z " fill="#2892C0" transform="translate(205,179)"/>
<path d="M0 0 C0.99 0.33 1.98 0.66 3 1 C2.38125 1.721875 1.7625 2.44375 1.125 3.1875 C-2.91451341 8.53391481 -3.91374532 13.40190879 -3 20 C-1.90802862 23.1382308 -0.55392836 26.06557278 1 29 C-0.65 28.67 -2.3 28.34 -4 28 C-5.43580976 20.10304631 -5.81265169 11.854824 -4 4 C-3.34 4 -2.68 4 -2 4 C-1.34 2.68 -0.68 1.36 0 0 Z " fill="#2491C5" transform="translate(173,75)"/>
<path d="M0 0 C0.66 0 1.32 0 2 0 C2 0.66 2 1.32 2 2 C2.99 2 3.98 2 5 2 C5.33 3.65 5.66 5.3 6 7 C7.32 7 8.64 7 10 7 C10.33773437 7.69867188 10.67546875 8.39734375 11.0234375 9.1171875 C11.46945313 10.02726563 11.91546875 10.93734375 12.375 11.875 C12.81585938 12.77992188 13.25671875 13.68484375 13.7109375 14.6171875 C14.90502699 17.09534472 14.90502699 17.09534472 17 19 C16.67 19.99 16.34 20.98 16 22 C15.26394531 21.05898437 14.52789062 20.11796875 13.76953125 19.1484375 C12.78390233 17.89058726 11.79822253 16.63277689 10.8125 15.375 C10.32974609 14.75753906 9.84699219 14.14007813 9.34960938 13.50390625 C6.99839997 10.50571976 4.62409428 7.55064644 2.13671875 4.6640625 C0 2 0 2 0 0 Z " fill="#2899CC" transform="translate(169,234)"/>
<path d="M0 0 C0.66 0 1.32 0 2 0 C1.96519531 0.94359375 1.93039063 1.8871875 1.89453125 2.859375 C1.71426506 11.40914286 2.42093281 18.75619594 5 27 C2 26 2 26 1.05078125 24.2421875 C-1.3499988 16.5444483 -1.53686455 9.00134667 -1 1 C-0.67 0.67 -0.34 0.34 0 0 Z " fill="#D7FBFE" transform="translate(154,81)"/>
<path d="M0 0 C6.01762572 5.37800823 9.8876793 13.81377145 10.875 21.8125 C10.91625 22.864375 10.9575 23.91625 11 25 C10.34 25 9.68 25 9 25 C8.67386719 23.98679688 8.34773437 22.97359375 8.01171875 21.9296875 C7.57055764 20.57804496 7.12913758 19.22648693 6.6875 17.875 C6.47416016 17.20984375 6.26082031 16.5446875 6.04101562 15.859375 C4.67514941 11.70061816 3.01778966 7.89800275 1 4 C0.3125 1.625 0.3125 1.625 0 0 Z " fill="#C7F2FB" transform="translate(241,173)"/>
<path d="M0 0 C0.99 0.33 1.98 0.66 3 1 C5.64341985 10.91282443 5.19255751 20.82407634 5 31 C3.02 31.99 3.02 31.99 1 33 C1.144375 32.40574219 1.28875 31.81148437 1.4375 31.19921875 C3.92734369 20.08137503 3.19968109 10.91319799 0 0 Z " fill="#C6F1FC" transform="translate(222,73)"/>
<path d="M0 0 C0.99 0 1.98 0 3 0 C3.79247664 2.20804559 4.5840013 4.41642497 5.375 6.625 C5.81585938 7.85476562 6.25671875 9.08453125 6.7109375 10.3515625 C7.13632812 11.55554688 7.56171875 12.75953125 8 14 C8.3815625 15.0003125 8.763125 16.000625 9.15625 17.03125 C10.12464848 20.43857798 10.19714729 23.33978281 10.125 26.875 C10.10695313 28.02742188 10.08890625 29.17984375 10.0703125 30.3671875 C10.03550781 31.67042969 10.03550781 31.67042969 10 33 C9.67 33 9.34 33 9 33 C8.90203125 32.21238281 8.8040625 31.42476562 8.703125 30.61328125 C7.2352619 19.92065782 4.5588287 9.8014817 0 0 Z " fill="#C5F3FB" transform="translate(257,172)"/>
<path d="M0 0 C4.94601796 4.94601796 4.10783749 13.96209627 4.13623047 20.56469727 C4.11990512 24.37737639 4.071106 28.18792857 4 32 C3.67 32 3.34 32 3 32 C2.49547893 27.60467325 1.99717184 23.20866362 1.5 18.8125 C1.35691406 17.56662109 1.21382812 16.32074219 1.06640625 15.03710938 C0.93105469 13.83505859 0.79570312 12.63300781 0.65625 11.39453125 C0.53056641 10.28956299 0.40488281 9.18459473 0.27539062 8.04614258 C0.03078724 5.34054288 -0.05299995 2.71403915 0 0 Z " fill="#C2F2FB" transform="translate(220,190)"/>
<path d="M0 0 C0.33 0 0.66 0 1 0 C0.73393339 7.18379838 -1.70181713 12.24770552 -6 18 C-6.99 18.66 -7.98 19.32 -9 20 C-9 18.35 -9 16.7 -9 15 C-8.01 15 -7.02 15 -6 15 C-5.80664062 14.21753906 -5.61328125 13.43507813 -5.4140625 12.62890625 C-5.15367187 11.61699219 -4.89328125 10.60507813 -4.625 9.5625 C-4.36976563 8.55316406 -4.11453125 7.54382813 -3.8515625 6.50390625 C-3 4 -3 4 -1 3 C-0.67 2.01 -0.34 1.02 0 0 Z " fill="#2299CB" transform="translate(224,96)"/>
<path d="M0 0 C0.95519531 0.34933594 1.91039062 0.69867188 2.89453125 1.05859375 C10.62370635 3.80605438 17.71321656 5.81048936 26 6 C26 6.33 26 6.66 26 7 C24.86820313 6.98839844 23.73640625 6.97679688 22.5703125 6.96484375 C21.08854331 6.95546546 19.60677235 6.9463653 18.125 6.9375 C17.37863281 6.92912109 16.63226563 6.92074219 15.86328125 6.91210938 C11.80154422 6.79311916 11.80154422 6.79311916 8 8 C8 7.01 8 6.02 8 5 C5.69 5 3.38 5 1 5 C0.67 3.35 0.34 1.7 0 0 Z " fill="#DCFAFD" transform="translate(171,121)"/>
<path d="M0 0 C0.33 1.32 0.66 2.64 1 4 C-0.33333333 5 -1.66666667 6 -3 7 C-3.54140625 7.52207031 -4.0828125 8.04414062 -4.640625 8.58203125 C-8.00123942 10.60173826 -11.1969066 10.43700696 -15 10.375 C-16.06734375 10.39240234 -16.06734375 10.39240234 -17.15625 10.41015625 C-21.38202025 10.38650455 -23.94361525 10.00862874 -27 7 C-26.38125 7.165 -25.7625 7.33 -25.125 7.5 C-17.84769157 8.66436935 -11.56468457 8.73285985 -5 5 C-2.12314797 2.45911321 -2.12314797 2.45911321 0 0 Z " fill="#2695C4" transform="translate(207,103)"/>
<path d="M0 0 C-0.11433363 2.25056722 -0.24186436 4.50046674 -0.375 6.75 C-0.44460937 8.00296875 -0.51421875 9.2559375 -0.5859375 10.546875 C-0.95323304 13.60998121 -1.39711286 15.41974266 -3 18 C-3.04898438 17.01257813 -3.09796875 16.02515625 -3.1484375 15.0078125 C-3.22320312 13.72648438 -3.29796875 12.44515625 -3.375 11.125 C-3.44460937 9.84882813 -3.51421875 8.57265625 -3.5859375 7.2578125 C-3.67241106 3.91938301 -3.67241106 3.91938301 -6 2 C-2.25 0 -2.25 0 0 0 Z " fill="#BAEEFA" transform="translate(166,152)"/>
<path d="M0 0 C0.33 0 0.66 0 1 0 C1.05416741 2.72943537 1.09375225 5.45778564 1.125 8.1875 C1.15013672 9.34088867 1.15013672 9.34088867 1.17578125 10.51757812 C1.21266851 14.8149434 0.9958504 18.07901831 -1 22 C-1.33 22 -1.66 22 -2 22 C-1.85811015 19.45805839 -1.71160845 16.91652007 -1.5625 14.375 C-1.52318359 13.66214844 -1.48386719 12.94929687 -1.44335938 12.21484375 C-1.19690319 8.08196318 -0.76529947 4.07730976 0 0 Z " fill="#C6F5FC" transform="translate(182,135)"/>
<path d="M0 0 C5.6276655 1.65078188 10.32867034 3.40666949 15 7 C15 7.33 15 7.66 15 8 C10.79418409 8.35048466 9.22297877 7.61867025 6 5 C5.113125 4.67 4.22625 4.34 3.3125 4 C2.1678125 3.505 2.1678125 3.505 1 3 C0.67 2.01 0.34 1.02 0 0 Z " fill="#279AD2" transform="translate(218,139)"/>
<path d="M0 0 C3.47775179 1.51553404 5.9557984 3.5773456 8.75 6.125 C9.94882813 7.21167969 9.94882813 7.21167969 11.171875 8.3203125 C11.77515625 8.87460938 12.3784375 9.42890625 13 10 C8.27164641 10 5.75731689 8.6563413 2.1875 5.5625 C0 3 0 3 0 0 Z " fill="#2196D3" transform="translate(233,147)"/>
<path d="M0 0 C0 3.5405582 -0.65992801 4.18297567 -2.8125 6.875 C-4.6255128 9.1847868 -6.17501394 11.30964006 -7.625 13.875 C-9.1693089 16.26165922 -10.37404364 17.00394759 -13 18 C-11.4805627 13.1396313 -8.67081346 9.93920644 -5.375 6.1875 C-4.859375 5.59001953 -4.34375 4.99253906 -3.8125 4.37695312 C-2.54753728 2.91287591 -1.27456166 1.45572845 0 0 Z " fill="#3099CB" transform="translate(205,221)"/>
<path d="M0 0 C4.29525256 2.09990125 7.85714027 5.09346545 11.4609375 8.203125 C11.1309375 8.863125 10.8009375 9.523125 10.4609375 10.203125 C9.8009375 10.203125 9.1409375 10.203125 8.4609375 10.203125 C7.9246875 9.460625 7.3884375 8.718125 6.8359375 7.953125 C2.18943108 2.57295967 -3.61686175 0.77997506 -10.5390625 0.203125 C-6.41225897 -2.31005198 -4.35748672 -1.59243701 0 0 Z " fill="#3098CC" transform="translate(205.5390625,57.796875)"/>
<path d="M0 0 C0.33 0 0.66 0 1 0 C1.06058594 1.20398438 1.12117187 2.40796875 1.18359375 3.6484375 C1.26799732 5.22397077 1.35264541 6.79949096 1.4375 8.375 C1.47681641 9.1690625 1.51613281 9.963125 1.55664062 10.78125 C1.68893404 15.02601221 1.68893404 15.02601221 3 19 C3.13415472 21.6723621 3.04318541 24.32250488 3 27 C0.32870333 24.32870333 0.06358182 22.3339876 -0.11352539 18.61816406 C-0.10828857 17.75932617 -0.10305176 16.90048828 -0.09765625 16.015625 C-0.09443359 15.08105469 -0.09121094 14.14648438 -0.08789062 13.18359375 C-0.07951172 12.21550781 -0.07113281 11.24742187 -0.0625 10.25 C-0.05798828 9.26644531 -0.05347656 8.28289062 -0.04882812 7.26953125 C-0.03706483 4.84629209 -0.02062684 2.42317727 0 0 Z " fill="#DDFBFD" transform="translate(219,165)"/>
<path d="M0 0 C0.33 0.66 0.66 1.32 1 2 C0.06421005 4.35981813 -0.93347808 6.69631264 -2 9 C-2.66 9 -3.32 9 -4 9 C-4.309375 10.093125 -4.61875 11.18625 -4.9375 12.3125 C-5.58337897 14.55407994 -6.2623117 16.7869351 -7 19 C-7.66 19 -8.32 19 -9 19 C-7.13503124 12.58632693 -4.84676871 4.84676871 0 0 Z " fill="#399AC9" transform="translate(127,167)"/>
<path d="M0 0 C0.99 0.33 1.98 0.66 3 1 C2.61328125 1.43570313 2.2265625 1.87140625 1.828125 2.3203125 C-0.7405082 5.25770987 -3.19082972 8.15713156 -5.3125 11.4375 C-5.869375 12.283125 -6.42625 13.12875 -7 14 C-7.33 14 -7.66 14 -8 14 C-8 12.35 -8 10.7 -8 9 C-7.01 8.67 -6.02 8.34 -5 8 C-4.67 7.175 -4.34 6.35 -4 5.5 C-3.67 4.675 -3.34 3.85 -3 3 C-2.01 2.67 -1.02 2.34 0 2 C0 1.34 0 0.68 0 0 Z " fill="#CEF7FC" transform="translate(132,157)"/>
<path d="M0 0 C4.25209792 4.12324647 8.13635705 8.51282966 12 13 C11.01 13.495 11.01 13.495 10 14 C8 13 8 13 6.6875 10.6875 C5.11933225 7.84383251 5.11933225 7.84383251 2.3125 5.9375 C1.549375 5.298125 0.78625 4.65875 0 4 C0 2.68 0 1.36 0 0 Z " fill="#329CCB" transform="translate(177,223)"/>
<path d="M0 0 C1.625 0.828125 1.625 0.828125 3.8125 2.328125 C2.0625 2.953125 2.0625 2.953125 -0.1875 3.328125 C-0.79207031 3.00972656 -1.39664063 2.69132812 -2.01953125 2.36328125 C-7.00864845 -0.01890984 -13.96887564 0.93649184 -19.1875 2.328125 C-16.55503385 -2.93680729 -4.86190866 -1.49330052 0 0 Z " fill="#C6F3FC" transform="translate(199.1875,70.671875)"/>
<path d="M0 0 C-3.96 2.64 -7.92 5.28 -12 8 C-12.33 7.01 -12.66 6.02 -13 5 C-12.38125 4.9175 -11.7625 4.835 -11.125 4.75 C-8.81653196 4.21189267 -8.81653196 4.21189267 -8 2 C-7 0 -7 0 -5.0625 -0.8125 C-3 -1 -3 -1 0 0 Z " fill="#CBF4FB" transform="translate(154,143)"/>
<path d="M0 0 C2.49143957 3.73715935 2.52843512 6.67295883 2 11 C1.18120238 13.78769825 0.14834054 16.32053874 -1 19 C-1.33 19 -1.66 19 -2 19 C-2.042721 17.33388095 -2.04063832 15.66617115 -2 14 C-1.67 13.67 -1.34 13.34 -1 13 C-0.76518307 10.81707226 -0.58636677 8.62796826 -0.4375 6.4375 C-0.35371094 5.23996094 -0.26992187 4.04242188 -0.18359375 2.80859375 C-0.12300781 1.88175781 -0.06242188 0.95492187 0 0 Z " fill="#BBEDFA" transform="translate(210,83)"/>
<path d="M0 0 C0.66 0 1.32 0 2 0 C2 0.66 2 1.32 2 2 C2.66 2.33 3.32 2.66 4 3 C0.33333333 6.66666667 -3.33333333 10.33333333 -7 14 C-5.64428903 9.93286708 -3.60326057 6.91349861 -1.0234375 3.55078125 C0.18360431 2.03146529 0.18360431 2.03146529 0 0 Z " fill="#2999C8" transform="translate(144,161)"/>
<path d="M0 0 C0.66 0 1.32 0 2 0 C0.64769187 2.79852655 -0.83982382 5.43557489 -2.5 8.0625 C-2.9228125 8.73410156 -3.345625 9.40570313 -3.78125 10.09765625 C-4.83579211 11.74368832 -5.91563835 13.37345752 -7 15 C-6.6186908 9.37568927 -6.22315022 6.09517597 -2 2 C-1.34 2 -0.68 2 0 2 C0 1.34 0 0.68 0 0 Z " fill="#C6F3FA" transform="translate(163,65)"/>
<path d="M0 0 C2.00720923 0.28674418 4.0085944 0.61866701 6 1 C6 1.33 6 1.66 6 2 C2.50007304 2.79706768 -0.7142231 3.11863027 -4.30078125 3.09765625 C-5.27724609 3.09443359 -6.25371094 3.09121094 -7.25976562 3.08789062 C-8.26716797 3.07951172 -9.27457031 3.07113281 -10.3125 3.0625 C-11.33923828 3.05798828 -12.36597656 3.05347656 -13.42382812 3.04882812 C-15.94927882 3.03708184 -18.47460905 3.02065565 -21 3 C-21 2.67 -21 2.34 -21 2 C-20.39937744 1.97494385 -19.79875488 1.9498877 -19.17993164 1.92407227 C-16.47388563 1.8084472 -13.76821717 1.68557064 -11.0625 1.5625 C-10.11697266 1.52318359 -9.17144531 1.48386719 -8.19726562 1.44335938 C-7.29814453 1.40146484 -6.39902344 1.35957031 -5.47265625 1.31640625 C-4.64000244 1.27974854 -3.80734863 1.24309082 -2.94946289 1.20532227 C-0.99661142 1.20632897 -0.99661142 1.20632897 0 0 Z " fill="#D3D2D1" transform="translate(200,269)"/>
<path d="M0 0 C1.4540625 0.0309375 1.4540625 0.0309375 2.9375 0.0625 C3.2675 1.0525 3.5975 2.0425 3.9375 3.0625 C2.6175 2.7325 1.2975 2.4025 -0.0625 2.0625 C-0.7225 4.3725 -1.3825 6.6825 -2.0625 9.0625 C-2.7225 9.0625 -3.3825 9.0625 -4.0625 9.0625 C-4.16015625 2.91015625 -4.16015625 2.91015625 -4.0625 1.0625 C-3.0625 0.0625 -3.0625 0.0625 0 0 Z " fill="#1E9DD9" transform="translate(217.0625,150.9375)"/>
<path d="M0 0 C0.33 0 0.66 0 1 0 C1.02696009 2.7708983 1.04681952 5.5415345 1.0625 8.3125 C1.07087891 9.09818359 1.07925781 9.88386719 1.08789062 10.69335938 C1.09111328 11.45068359 1.09433594 12.20800781 1.09765625 12.98828125 C1.10289307 13.68477783 1.10812988 14.38127441 1.11352539 15.09887695 C1 17 1 17 0 20 C-1.32 19.67 -2.64 19.34 -4 19 C-3.01 17.515 -3.01 17.515 -2 16 C-1.34 16 -0.68 16 0 16 C0 10.72 0 5.44 0 0 Z " fill="#E1FAFD" transform="translate(224,206)"/>
<path d="M0 0 C2.97 0.33 5.94 0.66 9 1 C9 1.66 9 2.32 9 3 C9.99 3 10.98 3 12 3 C12 4.32 12 5.64 12 7 C8 5 4 3 0 1 C0 0.67 0 0.34 0 0 Z " fill="#CEF5FB" transform="translate(203,57)"/>
<path d="M0 0 C0.33 0.99 0.66 1.98 1 3 C-0.43359375 5.04296875 -0.43359375 5.04296875 -2.4375 7.1875 C-3.09621094 7.90292969 -3.75492187 8.61835938 -4.43359375 9.35546875 C-5.20896484 10.16951172 -5.20896484 10.16951172 -6 11 C-6.99 10.67 -7.98 10.34 -9 10 C-8.43410156 9.44570313 -7.86820312 8.89140625 -7.28515625 8.3203125 C-6.55167969 7.59585937 -5.81820312 6.87140625 -5.0625 6.125 C-4.33160156 5.40570313 -3.60070312 4.68640625 -2.84765625 3.9453125 C-0.94332001 2.12972808 -0.94332001 2.12972808 0 0 Z " fill="#3C3C3C" transform="translate(131,257)"/>
<path d="M0 0 C4.01349645 0.28001138 5.72035142 0.75763789 8.8125 3.4375 C11 6 11 6 12 8 C9.14940657 6.61964507 6.44119096 5.10703513 3.75 3.4375 C3.04359375 3.00308594 2.3371875 2.56867188 1.609375 2.12109375 C1.07828125 1.75113281 0.5471875 1.38117188 0 1 C0 0.67 0 0.34 0 0 Z " fill="#2897C8" transform="translate(221,154)"/>
<path d="M0 0 C0 0.66 0 1.32 0 2 C-0.886875 2.391875 -1.77375 2.78375 -2.6875 3.1875 C-6.12129608 5.06636955 -8.36541769 7.13295455 -11 10 C-11.66 9.67 -12.32 9.34 -13 9 C-4.5 0 -4.5 0 0 0 Z " fill="#2794BF" transform="translate(176,59)"/>
<path d="M0 0 C0.66 0 1.32 0 2 0 C2.375 2.1875 2.375 2.1875 2 5 C0.16038352 6.99022836 -1.79186148 8.38989899 -4 10 C-4.66 9.34 -5.32 8.68 -6 8 C-5.34 8 -4.68 8 -4 8 C-4 7.34 -4 6.68 -4 6 C-3.34 6 -2.68 6 -2 6 C-1.67 5.01 -1.34 4.02 -1 3 C-0.34 3 0.32 3 1 3 C0.67 2.01 0.34 1.02 0 0 Z " fill="#333333" transform="translate(113,296)"/>
<path d="M0 0 C1 3 1 3 0.29296875 4.7890625 C-0.07183594 5.39492187 -0.43664062 6.00078125 -0.8125 6.625 C-1.16957031 7.23601562 -1.52664062 7.84703125 -1.89453125 8.4765625 C-3 10 -3 10 -5 11 C-3.92289822 6.69159287 -2.96052484 3.36423277 0 0 Z M-7 11 C-6.34 11.33 -5.68 11.66 -5 12 C-5.99 12.66 -6.98 13.32 -8 14 C-7.67 13.01 -7.34 12.02 -7 11 Z " fill="#E4FAFC" transform="translate(204,245)"/>
<path d="M0 0 C1 2 1 2 0.4375 4.4375 C-1.44098755 7.78610824 -3.51621754 8.56104638 -7 10 C-5.33248852 6.05860922 -2.77289351 3.2107188 0 0 Z " fill="#C7F3FA" transform="translate(144,167)"/>
<path d="M0 0 C0.33 1.32 0.66 2.64 1 4 C0.278125 4.391875 -0.44375 4.78375 -1.1875 5.1875 C-4.227326 7.14649898 -6.52127727 9.37963597 -9 12 C-7.54718935 6.67302761 -3.91888622 3.63597198 0 0 Z " fill="#2D97C4" transform="translate(137,155)"/>
<path d="M0 0 C2.475 0.495 2.475 0.495 5 1 C4.67 5.62 4.34 10.24 4 15 C3.67 15 3.34 15 3 15 C2.95101562 14.08476562 2.90203125 13.16953125 2.8515625 12.2265625 C2.77679688 11.03804687 2.70203125 9.84953125 2.625 8.625 C2.55539063 7.44164062 2.48578125 6.25828125 2.4140625 5.0390625 C2.29782654 1.89437681 2.29782654 1.89437681 0 0 Z " fill="#3A98C0" transform="translate(177,134)"/>
<path d="M0 0 C1 4 1 4 -0.125 6.625 C-2 9 -2 9 -7 11 C-4.69 7.37 -2.38 3.74 0 0 Z " fill="#BFEFF9" transform="translate(222,106)"/>
<path d="M0 0 C5.71562208 4.37792329 5.71562208 4.37792329 7 7.1875 C7 7.785625 7 8.38375 7 9 C6.34 9.66 5.68 10.32 5 11 C5 9.35 5 7.7 5 6 C3.68 5.67 2.36 5.34 1 5 C0.67 3.35 0.34 1.7 0 0 Z " fill="#CDF5FB" transform="translate(203,74)"/>
<path d="M0 0 C0.33 1.32 0.66 2.64 1 4 C-0.3125 5.75 -0.3125 5.75 -2 7 C-2.66 7 -3.32 7 -4 7 C-4.66 8.32 -5.32 9.64 -6 11 C-6.66 10.67 -7.32 10.34 -8 10 C-5.36 6.7 -2.72 3.4 0 0 Z " fill="#C9F3FD" transform="translate(219,226)"/>
<path d="M0 0 C2 1.375 2 1.375 4 3 C4 3.66 4 4.32 4 5 C4.66 5 5.32 5 6 5 C6.33 6.98 6.66 8.96 7 11 C4.35247996 8.42215154 2.05567935 6.08351902 0 3 C0 2.01 0 1.02 0 0 Z " fill="#309DCF" transform="translate(160,221)"/>
<path d="M0 0 C2.4375 0.75 2.4375 0.75 5 2 C5.8125 4.125 5.8125 4.125 6 6 C6.66 6 7.32 6 8 6 C8.33 7.65 8.66 9.3 9 11 C5.36440339 7.56638098 2.63886654 4.2026393 0 0 Z " fill="#3299C8" transform="translate(236,166)"/>
<path d="M0 0 C0.58265625 0.21527344 1.1653125 0.43054688 1.765625 0.65234375 C0.69455383 1.52183692 -0.39183444 2.3724858 -1.484375 3.21484375 C-2.08765625 3.69050781 -2.6909375 4.16617188 -3.3125 4.65625 C-5.234375 5.65234375 -5.234375 5.65234375 -7.46875 5.3046875 C-8.05140625 5.08941406 -8.6340625 4.87414062 -9.234375 4.65234375 C-8.16330383 3.78285058 -7.07691556 2.9322017 -5.984375 2.08984375 C-5.38109375 1.61417969 -4.7778125 1.13851562 -4.15625 0.6484375 C-2.234375 -0.34765625 -2.234375 -0.34765625 0 0 Z " fill="#D0F8FD" transform="translate(160.234375,155.34765625)"/>
<path d="M0 0 C0 2 0 2 -2.1875 4.5625 C-5.01309018 7.01134483 -6.35558268 7.68762137 -10 8 C-3.94594595 0 -3.94594595 0 0 0 Z " fill="#2695C9" transform="translate(148,147)"/>
<path d="M0 0 C-0.7109375 1.953125 -0.7109375 1.953125 -2 4 C-4.1640625 4.609375 -4.1640625 4.609375 -6.625 4.75 C-7.44226563 4.80671875 -8.25953125 4.8634375 -9.1015625 4.921875 C-9.72804687 4.94765625 -10.35453125 4.9734375 -11 5 C-10.34 4.34 -9.68 3.68 -9 3 C-8.01 3 -7.02 3 -6 3 C-6 2.34 -6 1.68 -6 1 C-3 0 -3 0 0 0 Z " fill="#149FDC" transform="translate(182,58)"/>
<path d="M0 0 C1.98 0 3.96 0 6 0 C2.54319097 2.76544722 -1.14341602 4.84921278 -5 7 C-5 5.68 -5 4.36 -5 3 C-4.360625 2.87625 -3.72125 2.7525 -3.0625 2.625 C-2.0415625 2.315625 -2.0415625 2.315625 -1 2 C-0.67 1.34 -0.34 0.68 0 0 Z " fill="#BCEEF8" transform="translate(172,57)"/>
<path d="M0 0 C0.66 1.32 1.32 2.64 2 4 C2.66 3.34 3.32 2.68 4 2 C4.99 2 5.98 2 7 2 C6.34 3.98 5.68 5.96 5 8 C4.67 7.34 4.34 6.68 4 6 C1.97536745 5.34786708 1.97536745 5.34786708 0 5 C-0.5625 3.0625 -0.5625 3.0625 -1 1 C-0.67 0.67 -0.34 0.34 0 0 Z " fill="#0F99D6" transform="translate(167,228)"/>
<path d="M0 0 C1.65 0.33 3.3 0.66 5 1 C1.25 6.875 1.25 6.875 -1 8 C-1.125 2.25 -1.125 2.25 0 0 Z " fill="#1E99D3" transform="translate(215,224)"/>
<path d="M0 0 C0.33 0 0.66 0 1 0 C1 3.3 1 6.6 1 10 C2.32 10.66 3.64 11.32 5 12 C5 12.99 5 13.98 5 15 C1.125 13.25 1.125 13.25 0 11 C-0.07033769 9.12620395 -0.0843022 7.24998898 -0.0625 5.375 C-0.05347656 4.37210938 -0.04445312 3.36921875 -0.03515625 2.3359375 C-0.02355469 1.56507813 -0.01195312 0.79421875 0 0 Z " fill="#1B9ACF" transform="translate(171,208)"/>
<path d="M0 0 C0.33 0 0.66 0 1 0 C1.31563182 5.26053037 0.66590937 8.44573816 -2 13 C-3.18771723 9.57056481 -2.80226223 7.62215325 -1.5625 4.25 C-1.27503906 3.45078125 -0.98757812 2.6515625 -0.69140625 1.828125 C-0.46324219 1.22484375 -0.23507813 0.6215625 0 0 Z " fill="#109ADD" transform="translate(160,74)"/>
<path d="M0 0 C2.96404505 2.80804268 5.44499019 5.18315774 7 9 C5.02 8.34 3.04 7.68 1 7 C0.67 4.69 0.34 2.38 0 0 Z " fill="#C8F4FB" transform="translate(172,239)"/>
<path d="M0 0 C1.65 1.65 3.3 3.3 5 5 C1.25 6.125 1.25 6.125 -1 5 C-1.33 4.01 -1.66 3.02 -2 2 C-1.34 1.34 -0.68 0.68 0 0 Z " fill="#272727" transform="translate(138,245)"/>
<path d="M0 0 C2.96404505 2.80804268 5.44499019 5.18315774 7 9 C5.1875 8.8125 5.1875 8.8125 3 8 C0.85802506 5.09303401 0 3.64478912 0 0 Z " fill="#D4F5FC" transform="translate(163,228)"/>
<path d="M0 0 C0.99 0 1.98 0 3 0 C1.84414715 3.91211733 0.64465038 6.8745041 -2 10 C-1.125 2.25 -1.125 2.25 0 0 Z " fill="#D4F7FE" transform="translate(121,171)"/>
<path d="M0 0 C1.258125 -0.020625 2.51625 -0.04125 3.8125 -0.0625 C4.52019531 -0.07410156 5.22789062 -0.08570313 5.95703125 -0.09765625 C8 0 8 0 11 1 C11.33 1.99 11.66 2.98 12 4 C6.06 2.515 6.06 2.515 0 1 C0 0.67 0 0.34 0 0 Z " fill="#BBEAF8" transform="translate(208,135)"/>
<path d="M0 0 C0.66 0.33 1.32 0.66 2 1 C1.071875 2.1446875 1.071875 2.1446875 0.125 3.3125 C-2.05597052 5.99625809 -2.05597052 5.99625809 -4 9 C-5.125 4.25 -5.125 4.25 -4 2 C-2.0625 0.8125 -2.0625 0.8125 0 0 Z " fill="#313131" transform="translate(87,299)"/>
<path d="M0 0 C0.33 0 0.66 0 1 0 C1.125 6.625 1.125 6.625 0 10 C-0.99 10 -1.98 10 -3 10 C-2.01 6.7 -1.02 3.4 0 0 Z " fill="#2EA0CE" transform="translate(209,211)"/>
<path d="M0 0 C0.66 0 1.32 0 2 0 C1.71905418 1.8141927 1.42493567 3.62635001 1.125 5.4375 C0.88136719 6.95150391 0.88136719 6.95150391 0.6328125 8.49609375 C0.42398438 9.32238281 0.21515625 10.14867187 0 11 C-0.99 11.495 -0.99 11.495 -2 12 C-1.85904936 10.3745692 -1.71207913 8.74965949 -1.5625 7.125 C-1.48128906 6.22007812 -1.40007812 5.31515625 -1.31640625 4.3828125 C-1 2 -1 2 0 0 Z " fill="#2395CD" transform="translate(129,187)"/>
<path d="M0 0 C0.33 0.99 0.66 1.98 1 3 C-1.12780579 5.34058637 -3.11562221 6.70700306 -6 8 C-4.55746343 4.63408134 -2.66735273 2.48952921 0 0 Z " fill="#242424" transform="translate(240,248)"/>
<path d="M0 0 C0.99 1.32 1.98 2.64 3 4 C2.34 4.66 1.68 5.32 1 6 C0.30251417 7.31747324 -0.36959957 8.64914193 -1 10 C-2.15837626 5.94568308 -1.83691257 3.78187881 0 0 Z " fill="#323234" transform="translate(248,233)"/>
<path d="M0 0 C0.33 0.66 0.66 1.32 1 2 C0.06553465 4.03144641 -0.93224776 6.03533587 -2 8 C-3.32 7.67 -4.64 7.34 -6 7 C-4.02 4.69 -2.04 2.38 0 0 Z " fill="#0E9ADD" transform="translate(205,223)"/>
<path d="M0 0 C3.73884332 2.65654657 5.64978174 4.58110387 7 9 C1.21538462 5.67692308 1.21538462 5.67692308 0.125 2.25 C0.08375 1.5075 0.0425 0.765 0 0 Z " fill="#2F9ACA" transform="translate(246,158)"/>
<path d="M0 0 C0.33 0 0.66 0 1 0 C1.99 3.96 2.98 7.92 4 12 C3.01 11.67 2.02 11.34 1 11 C-0.47666292 7.50970582 -0.07164685 3.72563614 0 0 Z " fill="#BAEBF7" transform="translate(155,96)"/>
<path d="M0 0 C0.66 0.33 1.32 0.66 2 1 C1.375 3.4375 1.375 3.4375 0 6 C-3.125 6.8125 -3.125 6.8125 -6 7 C-4.02 4.69 -2.04 2.38 0 0 Z " fill="#242424" transform="translate(90,294)"/>
<path d="M0 0 C0.66 0.33 1.32 0.66 2 1 C2.625 3.0625 2.625 3.0625 3 5 C1.1875 6.0625 1.1875 6.0625 -1 7 C-1.99 6.67 -2.98 6.34 -4 6 C-3.525625 5.566875 -3.05125 5.13375 -2.5625 4.6875 C-0.76313043 2.97690387 -0.76313043 2.97690387 0 0 Z " fill="#1D1D1D" transform="translate(221,273)"/>
<path d="M0 0 C1.33332095 2.6666419 0.67102033 4.16680303 0 7 C-1.65 7.33 -3.3 7.66 -5 8 C-1.125 1.125 -1.125 1.125 0 0 Z " fill="#C5F0F9" transform="translate(210,237)"/>
<path d="M0 0 C1.54571278 2.31856917 2.79618552 4.50638429 4 7 C2.35 6.67 0.7 6.34 -1 6 C-0.67 4.02 -0.34 2.04 0 0 Z " fill="#2EA1D3" transform="translate(170,97)"/>
<path d="M0 0 C2.46800047 1.15173355 4.04783565 2.04783565 6 4 C6.125 7.125 6.125 7.125 6 10 C3.8276509 6.74147635 1.92880342 3.40755272 0 0 Z " fill="#2994C6" transform="translate(206,76)"/>
<path d="M0 0 C0.66 0.33 1.32 0.66 2 1 C2.75 3.9375 2.75 3.9375 3 7 C2.34 7.66 1.68 8.32 1 9 C0.34 9 -0.32 9 -1 9 C-0.67 6.03 -0.34 3.06 0 0 Z " fill="#0F98DC" transform="translate(216,67)"/>
<path d="M0 0 C1.32 0.33 2.64 0.66 4 1 C4 1.66 4 2.32 4 3 C4.99 2.67 5.98 2.34 7 2 C6.34 3.32 5.68 4.64 5 6 C3.31237149 4.3545622 1.6459651 2.68711423 0 1 C0 0.67 0 0.34 0 0 Z " fill="#3092C0" transform="translate(186,256)"/>
<path d="M0 0 C3.16115776 1.36983503 3.9927092 1.9890638 6 5 C5.01 5.33 4.02 5.66 3 6 C0 2.25 0 2.25 0 0 Z " fill="#D1F3FA" transform="translate(227,159)"/>
<path d="M0 0 C2.31 0.66 4.62 1.32 7 2 C7.33 3.65 7.66 5.3 8 7 C6.66382648 6.02471263 5.3311249 5.04466681 4 4.0625 C3.2575 3.51722656 2.515 2.97195312 1.75 2.41015625 C1.1725 1.94480469 0.595 1.47945312 0 1 C0 0.67 0 0.34 0 0 Z " fill="#B3ECFA" transform="translate(237,149)"/>
<path d="M0 0 C3.875 4.75 3.875 4.75 5 7 C3.35 6.67 1.7 6.34 0 6 C0 4.02 0 2.04 0 0 Z " fill="#CCF4FB" transform="translate(159,108)"/>
<path d="M0 0 C0.33 1.32 0.66 2.64 1 4 C-2.75 7 -2.75 7 -5 7 C-3.88820837 3.66462511 -2.52588702 2.36292656 0 0 Z " fill="#2A9BCB" transform="translate(207,103)"/>
</svg>
